<svg viewBox="0 0 19 16" fill="none" xmlns="http://www.w3.org/2000/svg">
<path d="M18.125 5V8H17.1667V12.6667C17.1667 13.7712 16.2712 14.6667 15.1667 14.6667H3.83333C2.72876 14.6667 1.83333 13.7712 1.83333 12.6667V8H0.875V5C0.875 3.89543 1.77043 3 2.875 3H6.625V2.5C6.625 1.39543 7.52043 0.5 8.625 0.5H10.375C11.4796 0.5 12.375 1.39543 12.375 2.5V3H16.125C17.2296 3 18.125 3.89543 18.125 5Z" fill="none"/>
<path d="M1.83333 8H0.875V5C0.875 3.89543 1.77043 3 2.875 3H6.625M1.83333 8V12.6667C1.83333 13.7712 2.72876 14.6667 3.83333 14.6667H15.1667C16.2712 14.6667 17.1667 13.7712 17.1667 12.6667V8M1.83333 8H7.58333M17.1667 8H18.125V5C18.125 3.89543 17.2296 3 16.125 3H12.375M17.1667 8H11.4167M11.4167 8V6.33333H7.58333V8M11.4167 8V9.66667H7.58333V8M6.625 3V2.5C6.625 1.39543 7.52043 0.5 8.625 0.5H10.375C11.4796 0.5 12.375 1.39543 12.375 2.5V3M6.625 3H12.375" stroke="currentColor" stroke-linecap="round" stroke-linejoin="round"/>
</svg>
