<svg width="25" height="24" viewBox="0 0 25 24" fill="none" xmlns="http://www.w3.org/2000/svg">
<path d="M19.5 20V18.5M5.5 20V18.5" stroke="#004778" stroke-width="1.5" stroke-linecap="round"/>
<path d="M21.5 12C21.5 8.229 21.5 6.343 20.328 5.172C19.156 4.001 17.271 4 13.5 4H11.5C7.729 4 5.843 4 4.672 5.172C3.501 6.344 3.5 8.229 3.5 12M2.5 15C2.5 14.068 2.5 13.602 2.652 13.235C2.75251 12.9922 2.8999 12.7716 3.08572 12.5857C3.27155 12.3999 3.49218 12.2525 3.735 12.152C4.102 12 4.568 12 5.5 12H19.5C20.432 12 20.898 12 21.265 12.152C21.5078 12.2525 21.7284 12.3999 21.9143 12.5857C22.1001 12.7716 22.2475 12.9922 22.348 13.235C22.5 13.602 22.5 14.068 22.5 15C22.5 15.932 22.5 16.398 22.348 16.765C22.2475 17.0078 22.1001 17.2284 21.9143 17.4143C21.7284 17.6001 21.5078 17.7475 21.265 17.848C20.898 18 20.432 18 19.5 18H5.5C4.568 18 4.102 18 3.735 17.848C3.49218 17.7475 3.27155 17.6001 3.08572 17.4143C2.8999 17.2284 2.75251 17.0078 2.652 16.765C2.5 16.398 2.5 15.932 2.5 15Z" stroke="#004778" stroke-width="1.5"/>
<path d="M19 12V10.5C19 8.614 19 7.672 18.414 7.086C17.828 6.5 16.886 6.5 15 6.5H10C8.114 6.5 7.172 6.5 6.586 7.086C6 7.672 6 8.614 6 10.5V12M12.5 7V12" stroke="#004778" stroke-width="1.5"/>
</svg>
