<svg width="24" height="24" viewBox="0 0 24 24" fill="none" xmlns="http://www.w3.org/2000/svg">
<path d="M12 11.5005C12.2761 11.5005 12.5 11.2766 12.5 11.0005C12.5 10.7243 12.2761 10.5005 12 10.5005V11.5005ZM6 10.5005C5.72386 10.5005 5.5 10.7243 5.5 11.0005C5.5 11.2766 5.72386 11.5005 6 11.5005V10.5005ZM12 14.5005C12.2761 14.5005 12.5 14.2766 12.5 14.0005C12.5 13.7243 12.2761 13.5005 12 13.5005V14.5005ZM6 13.5005C5.72386 13.5005 5.5 13.7243 5.5 14.0005C5.5 14.2766 5.72386 14.5005 6 14.5005V13.5005ZM17.8576 5.76974C18.1223 5.8484 18.4006 5.69758 18.4793 5.43288C18.5579 5.16818 18.4071 4.88983 18.1424 4.81117L17.8576 5.76974ZM10.3084 7.93388L9.90144 7.64341L10.3084 7.93388ZM10.3084 16.067L10.7154 15.7766H10.7154L10.3084 16.067ZM18.1424 19.1897C18.4071 19.1111 18.5579 18.8327 18.4793 18.568C18.4006 18.3033 18.1223 18.1525 17.8576 18.2312L18.1424 19.1897ZM12 10.5005H6V11.5005H12V10.5005ZM12 13.5005H6V14.5005H12V13.5005ZM18.1424 4.81117C15.0725 3.89889 11.762 5.03664 9.90144 7.64341L10.7154 8.22435C12.3278 5.96515 15.197 4.9791 17.8576 5.76974L18.1424 4.81117ZM9.90144 7.64341C8.0409 10.2502 8.0409 13.7507 9.90144 16.3575L10.7154 15.7766C9.10292 13.5174 9.10292 10.4835 10.7154 8.22435L9.90144 7.64341ZM9.90144 16.3575C11.762 18.9643 15.0725 20.102 18.1424 19.1897L17.8576 18.2312C15.197 19.0218 12.3278 18.0358 10.7154 15.7766L9.90144 16.3575Z" fill="#98A2B3"/>
</svg>
