<svg width="25" height="24" viewBox="0 0 25 24" fill="none" xmlns="http://www.w3.org/2000/svg">
<path d="M8.26022 4.35369C7.24022 6.56536 4.89355 15.007 4.89355 15.007C4.89355 15.007 5.04022 15.0237 6.96455 15.7884L8.26122 10.515L7.65355 20.435C8.44622 21.509 12.8169 21.7987 12.8169 21.7987C12.8169 21.7987 12.6046 10.4287 12.4992 9.49536C12.2866 8.35602 12.2936 6.67069 11.8882 5.58536C11.5206 4.55669 11.5566 3.53769 10.9579 2.62402C10.9579 2.62402 8.64255 3.52902 8.26189 4.35469L8.26022 4.35369Z" fill="white"/>
<path d="M8.00373 19.7871L6.50537 22.4907" stroke="#004778" stroke-width="1.5" stroke-linecap="round" stroke-linejoin="round"/>
<path d="M16.9961 19.7871L18.4945 22.4907" stroke="#004778" stroke-width="1.5" stroke-linecap="round" stroke-linejoin="round"/>
<path d="M12.4998 20.9929C17.466 20.9929 21.4919 16.967 21.4919 12.0008C21.4919 7.03466 17.466 3.00879 12.4998 3.00879C7.53368 3.00879 3.50781 7.03466 3.50781 12.0008C3.50781 16.967 7.53368 20.9929 12.4998 20.9929Z" stroke="#004778" stroke-width="1.5" stroke-linecap="round" stroke-linejoin="round"/>
<path d="M3.80878 9.60339C3.11844 9.08597 2.59155 8.38086 2.29098 7.57219C1.9904 6.76353 1.92884 5.88546 2.11362 5.04276C2.29841 4.20007 2.72175 3.42833 3.33312 2.81964C3.94449 2.21094 4.71808 1.791 5.56158 1.60992C6.40508 1.42884 7.28287 1.49427 8.09021 1.79839C8.89754 2.10252 9.60033 2.6325 10.1147 3.3251" stroke="#004778" stroke-width="1.5" stroke-linecap="round" stroke-linejoin="round"/>
<path d="M12.5 3.00843L12.5 1.50977" stroke="#004778" stroke-width="1.5" stroke-linecap="round" stroke-linejoin="round"/>
<path d="M12.5 7.50488V12.0009" stroke="#004778" stroke-width="1.5" stroke-linecap="round" stroke-linejoin="round"/>
<path d="M12.5 12L15.6792 15.1792" stroke="#004778" stroke-width="1.5" stroke-linecap="round" stroke-linejoin="round"/>
<path d="M21.1912 9.60339C21.8815 9.08597 22.4084 8.38086 22.709 7.57219C23.0096 6.76353 23.0711 5.88546 22.8863 5.04276C22.7016 4.20007 22.2782 3.42833 21.6668 2.81964C21.0555 2.21094 20.2819 1.791 19.4384 1.60992C18.5949 1.42884 17.7171 1.49427 16.9098 1.79839C16.1024 2.10252 15.3996 2.6325 14.8853 3.3251" stroke="#004778" stroke-width="1.5" stroke-linecap="round" stroke-linejoin="round"/>
</svg>
