<svg xmlns="http://www.w3.org/2000/svg" width="25" height="25" viewBox="0 0 25 25" fill="none">
<path d="M3.60837 15.796C2.75837 14.692 2.33337 14.139 2.33337 12.5C2.33337 10.86 2.75837 10.309 3.60837 9.204C5.30537 7 8.15137 4.5 12.3334 4.5C16.5154 4.5 19.3614 7 21.0584 9.204C21.9084 10.31 22.3334 10.861 22.3334 12.5C22.3334 14.14 21.9084 14.691 21.0584 15.796C19.3614 18 16.5154 20.5 12.3334 20.5C8.15137 20.5 5.30537 18 3.60837 15.796Z" stroke="currentColor" stroke-width="1.5"/>
<path d="M15.3334 12.5C15.3334 13.2956 15.0173 14.0587 14.4547 14.6213C13.8921 15.1839 13.129 15.5 12.3334 15.5C11.5377 15.5 10.7747 15.1839 10.2121 14.6213C9.64944 14.0587 9.33337 13.2956 9.33337 12.5C9.33337 11.7044 9.64944 10.9413 10.2121 10.3787C10.7747 9.81607 11.5377 9.5 12.3334 9.5C13.129 9.5 13.8921 9.81607 14.4547 10.3787C15.0173 10.9413 15.3334 11.7044 15.3334 12.5Z" stroke="currentColor" stroke-width="1.5"/>
</svg>