<svg width="32" height="33" viewBox="0 0 32 33" fill="none" xmlns="http://www.w3.org/2000/svg">
<path d="M28.3337 16.5002H11.8603M6.04566 16.5002H3.66699M6.04566 16.5002C6.04566 15.7293 6.3519 14.99 6.897 14.4449C7.44211 13.8998 8.18143 13.5935 8.95233 13.5935C9.72322 13.5935 10.4625 13.8998 11.0076 14.4449C11.5528 14.99 11.859 15.7293 11.859 16.5002C11.859 17.2711 11.5528 18.0104 11.0076 18.5555C10.4625 19.1006 9.72322 19.4068 8.95233 19.4068C8.18143 19.4068 7.44211 19.1006 6.897 18.5555C6.3519 18.0104 6.04566 17.2711 6.04566 16.5002ZM28.3337 25.3095H20.6697M20.6697 25.3095C20.6697 26.0806 20.3627 26.8207 19.8175 27.366C19.2722 27.9112 18.5327 28.2175 17.7617 28.2175C16.9908 28.2175 16.2514 27.9099 15.7063 27.3648C15.1612 26.8197 14.855 26.0804 14.855 25.3095M20.6697 25.3095C20.6697 24.5384 20.3627 23.7996 19.8175 23.2544C19.2722 22.7092 18.5327 22.4028 17.7617 22.4028C16.9908 22.4028 16.2514 22.7091 15.7063 23.2542C15.1612 23.7993 14.855 24.5386 14.855 25.3095M14.855 25.3095H3.66699M28.3337 7.69085H24.1937M18.379 7.69085H3.66699M18.379 7.69085C18.379 6.91995 18.6852 6.18063 19.2303 5.63552C19.7754 5.09042 20.5148 4.78418 21.2857 4.78418C21.6674 4.78418 22.0453 4.85936 22.398 5.00544C22.7506 5.15151 23.0711 5.36561 23.341 5.63552C23.6109 5.90543 23.825 6.22586 23.9711 6.57851C24.1171 6.93117 24.1923 7.30914 24.1923 7.69085C24.1923 8.07256 24.1171 8.45053 23.9711 8.80318C23.825 9.15583 23.6109 9.47626 23.341 9.74617C23.0711 10.0161 22.7506 10.2302 22.398 10.3763C22.0453 10.5223 21.6674 10.5975 21.2857 10.5975C20.5148 10.5975 19.7754 10.2913 19.2303 9.74617C18.6852 9.20106 18.379 8.46174 18.379 7.69085Z" stroke="black" stroke-width="1.5" stroke-miterlimit="10" stroke-linecap="round"/>
</svg>
