<svg width="25" height="24" viewBox="0 0 25 24" fill="none" xmlns="http://www.w3.org/2000/svg">
<path d="M8.26022 4.35369C7.24022 6.56536 4.89355 15.007 4.89355 15.007C4.89355 15.007 5.04022 15.0237 6.96455 15.7884L8.26122 10.515L7.65355 20.435C8.44622 21.509 12.8169 21.7987 12.8169 21.7987C12.8169 21.7987 12.6046 10.4287 12.4992 9.49536C12.2866 8.35602 12.2936 6.67069 11.8882 5.58536C11.5206 4.55669 11.5566 3.53769 10.9579 2.62402C10.9579 2.62402 8.64255 3.52902 8.26189 4.35469L8.26022 4.35369Z" fill="white"/>
<path d="M9.69652 3.95345L9.43652 6.40012H10.2432L9.72652 7.31345L12.7865 9.77345M12.8632 8.92678C13.0515 7.25678 14.2175 2.62012 14.2175 2.62012C14.2175 2.62012 16.8575 3.93112 17.3032 4.72378C18.5462 6.93512 19.9962 15.1971 19.9962 15.1971C19.9962 15.2678 19.8495 15.7725 17.9252 15.7861L16.6285 10.5128L17.2319 20.8928C16.4392 21.9668 12.8619 21.7975 12.8619 21.7975" fill="white"/>
<path d="M15.0167 3.98288L15.5734 6.39954H14.6167L15.1834 7.28288L12.83 9.77288M14.0634 3.45621C12.9519 3.02909 11.7194 3.04136 10.6167 3.49054L14.0634 3.45621Z" fill="white"/>
<path d="M15.0498 3.172L15.6355 5.752H14.5765L15.2031 6.73234L12.5938 9.49434M14.0665 2.487C12.8325 2.01267 12.1711 1.98834 10.9471 2.487M13.9498 10.123H15.5465M9.45981 15.7197H11.0575V16.9987C11.0575 17.2495 10.9578 17.49 10.7805 17.6674C10.6031 17.8447 10.3626 17.9443 10.1118 17.9443H9.45947V16.9877M15.4931 15.7197H13.8955V16.9987C13.8955 17.1229 13.9199 17.2458 13.9675 17.3606C14.015 17.4753 14.0846 17.5795 14.1725 17.6674C14.2603 17.7552 14.3645 17.8248 14.4792 17.8724C14.594 17.9199 14.717 17.9443 14.8411 17.9443H15.4935V16.9877" stroke="#004778" stroke-width="0.739667" stroke-linecap="round" stroke-linejoin="round"/>
<path d="M10.9465 2.48673C10.9465 2.48673 8.58253 3.87673 8.13186 4.67807C6.87486 6.91407 4.89453 15.0047 4.89453 15.0047C4.89453 15.0047 5.6612 15.7184 6.96553 15.7861L8.2622 10.5127L7.96686 20.9594C9.41553 22.3151 16.0202 21.9964 16.9235 20.9594L16.6279 10.5127L17.9245 15.7861C19.1645 16.1354 19.9955 15.1971 19.9955 15.1971C19.9955 15.1971 17.9955 6.68707 16.7385 4.4504C16.2879 3.64873 14.0652 2.4834 14.0652 2.4834C14.0652 2.4834 12.8559 7.8034 12.5055 9.49007C12.1552 7.8014 10.9459 2.4834 10.9459 2.4834L10.9465 2.48673Z" stroke="#004778" stroke-width="0.739667" stroke-linecap="round" stroke-linejoin="round"/>
<path d="M9.96011 3.16797L9.37744 5.7523H10.4364L9.80978 6.73264L12.4191 9.49464" stroke="#004778" stroke-width="0.739667" stroke-linecap="round" stroke-linejoin="round"/>
<path d="M12.5 9.49316V21.8398" stroke="#004778" stroke-width="0.739667" stroke-linejoin="round"/>
</svg>
