<svg width="14" height="16" viewBox="0 0 14 16" fill="none" xmlns="http://www.w3.org/2000/svg">
    <path
        d="M7.44801 14.8598C7.31745 14.951 7.16075 15 7 15C6.83925 15 6.68255 14.951 6.55199 14.8598C2.68867 12.1827 -1.41145 6.67614 2.73348 2.69709C3.87138 1.60887 5.40382 0.999319 7 1C8.60005 1 10.1353 1.61055 11.2665 2.69631C15.4114 6.67536 11.3113 12.1812 7.44801 14.8598Z"
        stroke="currentColor" stroke-width="1.2" stroke-linecap="round" stroke-linejoin="round" />
    <path
        d="M6.99995 7.99974C7.42431 7.99974 7.83129 7.83585 8.13135 7.54413C8.43142 7.25241 8.6 6.85676 8.6 6.44421C8.6 6.03165 8.43142 5.636 8.13135 5.34428C7.83129 5.05256 7.42431 4.88867 6.99995 4.88867C6.57559 4.88867 6.16861 5.05256 5.86855 5.34428C5.56848 5.636 5.3999 6.03165 5.3999 6.44421C5.3999 6.85676 5.56848 7.25241 5.86855 7.54413C6.16861 7.83585 6.57559 7.99974 6.99995 7.99974Z"
        stroke="currentColor" stroke-width="1.5" stroke-linecap="round" stroke-linejoin="round" />
</svg>