<svg width="16" height="17" viewBox="0 0 16 17" fill="none" xmlns="http://www.w3.org/2000/svg">
<g clip-path="url(#clip0_900_6549)">
<path d="M7.99996 8.83301C7.38112 8.83301 6.78763 9.07884 6.35004 9.51643C5.91246 9.95401 5.66663 10.5475 5.66663 11.1663C5.66663 11.7852 5.91246 12.3787 6.35004 12.8163C6.78763 13.2538 7.38112 13.4997 7.99996 13.4997C8.6188 13.4997 9.21229 13.2538 9.64987 12.8163C10.0875 12.3787 10.3333 11.7852 10.3333 11.1663C10.3333 10.5475 10.0875 9.95401 9.64987 9.51643C9.21229 9.07884 8.6188 8.83301 7.99996 8.83301ZM6.99996 11.1663C6.99996 10.9011 7.10532 10.6468 7.29285 10.4592C7.48039 10.2717 7.73474 10.1663 7.99996 10.1663C8.26518 10.1663 8.51953 10.2717 8.70707 10.4592C8.8946 10.6468 8.99996 10.9011 8.99996 11.1663C8.99996 11.4316 8.8946 11.6859 8.70707 11.8734C8.51953 12.061 8.26518 12.1663 7.99996 12.1663C7.73474 12.1663 7.48039 12.061 7.29285 11.8734C7.10532 11.6859 6.99996 11.4316 6.99996 11.1663Z" fill="#004778"/>
<path d="M11.684 3.91079L9.56467 0.939453L1.772 7.16479L1.34 7.16012V7.16679H1V15.1668H15V7.16679H14.3587L13.0827 3.43412L11.684 3.91079ZM12.95 7.16679H6.26467L11.244 5.46945L12.2587 5.14479L12.95 7.16679ZM10.3667 4.36012L5.22667 6.11212L9.29733 2.86012L10.3667 4.36012ZM2.33333 12.6128V9.71945C2.61478 9.62012 2.87043 9.45905 3.08154 9.24807C3.29264 9.03708 3.45385 8.78152 3.55333 8.50012H12.4467C12.5461 8.78164 12.7072 9.03733 12.9183 9.24844C13.1295 9.45955 13.3851 9.62072 13.6667 9.72012V12.6135C13.3851 12.7129 13.1295 12.874 12.9183 13.0851C12.7072 13.2962 12.5461 13.5519 12.4467 13.8335H3.55467C3.45479 13.5519 3.29331 13.2962 3.08201 13.085C2.87072 12.8738 2.61493 12.7125 2.33333 12.6128Z" fill="#004778"/>
</g>
<defs>
<clipPath id="clip0_900_6549">
<rect width="16" height="16" fill="white" transform="translate(0 0.5)"/>
</clipPath>
</defs>
</svg>
