<svg width="24" height="24" viewBox="0 0 24 24" fill="none" xmlns="http://www.w3.org/2000/svg">
<path d="M7.375 6.25H16.125C16.1416 6.25 16.1578 6.25352 16.1729 6.25977L16.2139 6.28613C16.2373 6.30957 16.25 6.34185 16.25 6.375V17.625C16.25 17.6582 16.2373 17.6904 16.2139 17.7139C16.1904 17.7373 16.1582 17.75 16.125 17.75H7.375C7.35839 17.75 7.3422 17.7465 7.32715 17.7402L7.28613 17.7139C7.26269 17.6904 7.25 17.6582 7.25 17.625V6.375L7.25977 6.32715L7.28613 6.28613C7.30958 6.26269 7.34185 6.25 7.375 6.25Z" stroke="#004778"/>
<path d="M6.125 3.25C6.45652 3.25 6.77446 3.1183 7.00888 2.88388C7.2433 2.64946 7.375 2.33152 7.375 2H8.625C8.625 2.33152 8.7567 2.64946 8.99112 2.88388C9.22554 3.1183 9.54348 3.25 9.875 3.25C10.2065 3.25 10.5245 3.1183 10.7589 2.88388C10.9933 2.64946 11.125 2.33152 11.125 2H12.375C12.375 2.33152 12.5067 2.64946 12.7411 2.88388C12.9755 3.1183 13.2935 3.25 13.625 3.25C13.9565 3.25 14.2745 3.1183 14.5089 2.88388C14.7433 2.64946 14.875 2.33152 14.875 2H16.125C16.125 2.33152 16.2567 2.64946 16.4911 2.88388C16.7255 3.1183 17.0435 3.25 17.375 3.25C17.7065 3.25 18.0245 3.1183 18.2589 2.88388C18.4933 2.64946 18.625 2.33152 18.625 2H20.5V3.25C20.1685 3.25 19.8505 3.3817 19.6161 3.61612C19.3817 3.85054 19.25 4.16848 19.25 4.5C19.25 4.83152 19.3817 5.14946 19.6161 5.38388C19.8505 5.6183 20.1685 5.75 20.5 5.75V7C20.1685 7 19.8505 7.1317 19.6161 7.36612C19.3817 7.60054 19.25 7.91848 19.25 8.25C19.25 8.58152 19.3817 8.89946 19.6161 9.13388C19.8505 9.3683 20.1685 9.5 20.5 9.5V10.75C20.1685 10.75 19.8505 10.8817 19.6161 11.1161C19.3817 11.3505 19.25 11.6685 19.25 12C19.25 12.3315 19.3817 12.6495 19.6161 12.8839C19.8505 13.1183 20.1685 13.25 20.5 13.25V14.5C20.1685 14.5 19.8505 14.6317 19.6161 14.8661C19.3817 15.1005 19.25 15.4185 19.25 15.75C19.25 16.0815 19.3817 16.3995 19.6161 16.6339C19.8505 16.8683 20.1685 17 20.5 17V18.25C20.1685 18.25 19.8505 18.3817 19.6161 18.6161C19.3817 18.8505 19.25 19.1685 19.25 19.5C19.25 19.8315 19.3817 20.1495 19.6161 20.3839C19.8505 20.6183 20.1685 20.75 20.5 20.75V22H18.625C18.625 21.6685 18.4933 21.3505 18.2589 21.1161C18.0245 20.8817 17.7065 20.75 17.375 20.75C17.0435 20.75 16.7255 20.8817 16.4911 21.1161C16.2567 21.3505 16.125 21.6685 16.125 22H14.875C14.875 21.6685 14.7433 21.3505 14.5089 21.1161C14.2745 20.8817 13.9565 20.75 13.625 20.75C13.2935 20.75 12.9755 20.8817 12.7411 21.1161C12.5067 21.3505 12.375 21.6685 12.375 22H11.125C11.125 21.6685 10.9933 21.3505 10.7589 21.1161C10.5245 20.8817 10.2065 20.75 9.875 20.75C9.54348 20.75 9.22554 20.8817 8.99112 21.1161C8.7567 21.3505 8.625 21.6685 8.625 22H7.375C7.375 21.6685 7.2433 21.3505 7.00888 21.1161C6.77446 20.8817 6.45652 20.75 6.125 20.75C5.79348 20.75 5.47554 20.8817 5.24112 21.1161C5.0067 21.3505 4.875 21.6685 4.875 22H3V20.75C3.33152 20.75 3.64946 20.6183 3.88388 20.3839C4.1183 20.1495 4.25 19.8315 4.25 19.5C4.25 19.1685 4.1183 18.8505 3.88388 18.6161C3.64946 18.3817 3.33152 18.25 3 18.25V17C3.33152 17 3.64946 16.8683 3.88388 16.6339C4.1183 16.3995 4.25 16.0815 4.25 15.75C4.25 15.4185 4.1183 15.1005 3.88388 14.8661C3.64946 14.6317 3.33152 14.5 3 14.5V13.25C3.33152 13.25 3.64946 13.1183 3.88388 12.8839C4.1183 12.6495 4.25 12.3315 4.25 12C4.25 11.6685 4.1183 11.3505 3.88388 11.1161C3.64946 10.8817 3.33152 10.75 3 10.75V9.5C3.33152 9.5 3.64946 9.3683 3.88388 9.13388C4.1183 8.89946 4.25 8.58152 4.25 8.25C4.25 7.91848 4.1183 7.60054 3.88388 7.36612C3.64946 7.1317 3.33152 7 3 7V5.75C3.33152 5.75 3.64946 5.6183 3.88388 5.38388C4.1183 5.14946 4.25 4.83152 4.25 4.5C4.25 4.16848 4.1183 3.85054 3.88388 3.61612C3.64946 3.3817 3.33152 3.25 3 3.25V2H4.875C4.875 2.33152 5.0067 2.64946 5.24112 2.88388C5.47554 3.1183 5.79348 3.25 6.125 3.25ZM5.5 5.75V18.25C5.5 18.5815 5.6317 18.8995 5.86612 19.1339C6.10054 19.3683 6.41848 19.5 6.75 19.5H16.75C17.0815 19.5 17.3995 19.3683 17.6339 19.1339C17.8683 18.8995 18 18.5815 18 18.25V5.75C18 5.41848 17.8683 5.10054 17.6339 4.86612C17.3995 4.6317 17.0815 4.5 16.75 4.5H6.75C6.41848 4.5 6.10054 4.6317 5.86612 4.86612C5.6317 5.10054 5.5 5.41848 5.5 5.75Z" fill="#004778"/>
</svg>
