<svg width="24" height="24" viewBox="0 0 24 24" fill="none" xmlns="http://www.w3.org/2000/svg">
<path d="M2 3.87753C1.99934 3.4348 2.1554 3.00611 2.44052 2.66741C2.72565 2.3287 3.12144 2.10184 3.55781 2.02699C3.99418 1.95214 4.44296 2.03414 4.82466 2.25847C5.20636 2.4828 5.49636 2.83497 5.64328 3.25262H20.1226C20.5657 3.25201 20.9946 3.40832 21.3334 3.69384C21.6722 3.97935 21.8989 4.37562 21.9733 4.81237C22.0478 5.24912 21.9651 5.69812 21.7401 6.07974C21.515 6.46136 21.162 6.75093 20.7438 6.89711L20.7476 7.0021V15.7509C20.7476 16.7453 20.3525 17.699 19.6493 18.4022C18.9462 19.1053 17.9925 19.5004 16.998 19.5004H8.24919C7.32688 19.5003 6.43694 19.1604 5.74951 18.5455V21.0626C5.74951 21.3112 5.65075 21.5497 5.47496 21.7255C5.29917 21.9012 5.06074 22 4.81213 22H2.93738C2.68877 22 2.45035 21.9012 2.27455 21.7255C2.09876 21.5497 2 21.3112 2 21.0626V3.87753ZM19.4977 15.7509V7.0021H5.74951V15.7509C5.74951 16.4138 6.01287 17.0496 6.48165 17.5184C6.95043 17.9872 7.58623 18.2505 8.24919 18.2505H16.998C17.661 18.2505 18.2968 17.9872 18.7656 17.5184C19.2344 17.0496 19.4977 16.4138 19.4977 15.7509ZM4.49968 5.75227H20.1226C20.2884 5.75227 20.4473 5.68643 20.5645 5.56924C20.6817 5.45205 20.7476 5.2931 20.7476 5.12736C20.7476 4.96162 20.6817 4.80267 20.5645 4.68548C20.4473 4.56829 20.2884 4.50245 20.1226 4.50245H4.49968V3.87753C4.49968 3.7118 4.43384 3.55285 4.31664 3.43565C4.19945 3.31846 4.0405 3.25262 3.87476 3.25262C3.70902 3.25262 3.55007 3.31846 3.43287 3.43565C3.31568 3.55285 3.24984 3.7118 3.24984 3.87753V20.7502H4.49968V5.75227ZM8.8741 11.9452V15.1322C8.8741 15.2979 8.93994 15.4569 9.05714 15.5741C9.17433 15.6913 9.33328 15.7571 9.49902 15.7571H10.7489C10.9146 15.7571 11.0735 15.6913 11.1907 15.5741C11.3079 15.4569 11.3738 15.2979 11.3738 15.1322V13.8824C11.3738 13.7166 11.4396 13.5577 11.5568 13.4405C11.674 13.3233 11.833 13.2575 11.9987 13.2575H13.2485C13.4143 13.2575 13.5732 13.3233 13.6904 13.4405C13.8076 13.5577 13.8735 13.7166 13.8735 13.8824V15.1322C13.8735 15.2979 13.9393 15.4569 14.0565 15.5741C14.1737 15.6913 14.3326 15.7571 14.4984 15.7571H15.7482C15.9139 15.7571 16.0729 15.6913 16.1901 15.5741C16.3073 15.4569 16.3731 15.2979 16.3731 15.1322V11.9452C16.3732 11.7685 16.3358 11.5938 16.2634 11.4327C16.191 11.2716 16.0853 11.1276 15.9532 11.0103L13.0386 8.42315C12.9242 8.32159 12.7766 8.2655 12.6236 8.2655C12.4707 8.2655 12.323 8.32159 12.2087 8.42315L9.29405 11.0103C9.16196 11.1276 9.05623 11.2716 8.98385 11.4327C8.91146 11.5938 8.87406 11.7685 8.8741 11.9452Z" fill="#004778"/>
</svg>
