<svg width="32" height="33" viewBox="0 0 32 33" fill="none" xmlns="http://www.w3.org/2000/svg">
<path d="M13.3333 21.8329H18.6666C19.4 21.8329 20 21.2329 20 20.4996V13.8329H22.12C23.3066 13.8329 23.9066 12.3929 23.0666 11.5529L16.9466 5.43289C16.8233 5.30929 16.6768 5.21123 16.5155 5.14432C16.3542 5.07741 16.1813 5.04297 16.0066 5.04297C15.832 5.04297 15.6591 5.07741 15.4978 5.14432C15.3365 5.21123 15.19 5.30929 15.0666 5.43289L8.94663 11.5529C8.10663 12.3929 8.69329 13.8329 9.87996 13.8329H12V20.4996C12 21.2329 12.6 21.8329 13.3333 21.8329ZM7.99996 24.4996H24C24.7333 24.4996 25.3333 25.0996 25.3333 25.8329C25.3333 26.5662 24.7333 27.1662 24 27.1662H7.99996C7.26663 27.1662 6.66663 26.5662 6.66663 25.8329C6.66663 25.0996 7.26663 24.4996 7.99996 24.4996Z" fill="white"/>
</svg>
