<svg width="22" height="24" viewBox="0 0 22 24" fill="none" xmlns="http://www.w3.org/2000/svg">
<g clip-path="url(#clip0_794_52765)">
<path d="M15.666 15.9736C18.5894 16.7341 20.7498 19.3959 20.75 22.5605C20.75 22.9401 20.4416 23.25 20.0605 23.25H1.93945C1.55989 23.25 1.25 22.9416 1.25 22.5605C1.25018 19.3963 3.41008 16.7344 6.33301 15.9736L8.01172 22.8242L9.46484 22.8398L11 17.126L12.5352 22.8398L13.9883 22.8242L15.666 15.9736ZM11.9258 15L11.0557 16.4512L11 16.5439L10.9443 16.4512L10.7549 16.1348H10.7637L10.0781 15H11.9258ZM11 0.75C12.3054 0.75 13.5604 1.23638 14.5234 2.1084L14.7119 2.28809C15.6965 3.27265 16.25 4.60761 16.25 6C16.25 7.30536 15.7636 8.56038 14.8916 9.52344L14.7119 9.71191C13.7273 10.6965 12.3924 11.25 11 11.25C9.69464 11.25 8.43962 10.7636 7.47656 9.8916L7.28809 9.71191C6.30352 8.72735 5.75 7.39239 5.75 6C5.75 4.60761 6.30352 3.27265 7.28809 2.28809C8.27265 1.30352 9.60761 0.75 11 0.75Z" stroke="#004778" stroke-width="1.5"/>
<path d="M12.5 14.5H9.5L10.5 17L8.5 23.5H13.5L11.5 17L12.5 14.5Z" fill="#004778"/>
</g>
<defs>
<clipPath id="clip0_794_52765">
<rect width="21" height="24" fill="white" transform="translate(0.5)"/>
</clipPath>
</defs>
</svg>
