<svg width="1440" height="1024" viewBox="0 0 1440 1024" fill="none" xmlns="http://www.w3.org/2000/svg">
<path d="M289 -282C836.371 194.341 1475.07 315.142 1726 316" stroke="#A4D1DF" stroke-width="1.5"/>
<path d="M1118 -299C570.629 177.341 -68.0711 298.142 -319 299" stroke="#A4D1DF" stroke-width="1.5"/>
<path d="M-21 122C558.367 598.341 1234.4 719.142 1500 720" stroke="#A4D1DF" stroke-width="1.5"/>
<path d="M-2 375C577.367 851.341 1253.4 972.142 1519 973" stroke="#A4D1DF" stroke-width="1.5"/>
<path d="M1500 194C920.633 670.341 244.597 791.142 -21 792" stroke="#A4D1DF" stroke-width="1.5"/>
<path d="M1442 -73C862.633 403.341 186.597 524.142 -79 525" stroke="#A4D1DF" stroke-width="1.5"/>
<path d="M-138 578C441.367 1054.34 1117.4 1175.14 1383 1176" stroke="#A4D1DF" stroke-width="1.5"/>
<path d="M1646 493C1066.63 969.341 390.597 1090.14 125 1091" stroke="#A4D1DF" stroke-width="1.5"/>
<path d="M80 -139C659.367 337.341 1335.4 458.142 1601 459" stroke="#A4D1DF" stroke-width="1.5"/>
</svg>
